<?xml version="1.0" encoding="UTF-8" standalone="no"?> <svg id="Layer_1" data-name="Layer 1" xmlns="http://www.w3.org/2000/svg" viewBox="0 0 64 64"><defs><style>.cls-1{fill:#fff;}.cls-2{fill:#e5e5e5;}.cls-3{fill:#c46c30;}.cls-4{fill:#a55b28;}.cls-5{fill:#e2a983;}.cls-6{fill:#b78563;}.cls-7{fill:#35251c;}</style></defs><title>Paper Coffee Cup Icon</title><polygon class="cls-1" points="47.81 12.31 15.44 12.31 15.44 4.43 47.81 7.11 47.81 12.31"/><polygon class="cls-2" points="33.08 5.89 33.08 12.31 47.81 12.31 47.81 7.11 33.08 5.89"/><rect class="cls-1" x="11.57" y="12.32" width="40.11" height="6.17" rx="2.23"/><path class="cls-2" d="M49.45,12.32H33.18v6.16H49.45a2.21,2.21,0,0,0,2.22-2.22V14.54A2.21,2.21,0,0,0,49.45,12.32Z"/><polygon class="cls-3" points="18.87 54.78 19.58 62.3 43.61 62.3 44.33 54.78 18.87 54.78"/><polygon class="cls-4" points="33.27 62.3 43.61 62.3 44.33 54.78 33.27 54.78 33.27 62.3"/><polygon class="cls-5" points="44.33 54.78 47.08 26.14 16.17 26.14 18.88 54.78 44.33 54.78"/><polygon class="cls-6" points="33.27 54.78 44.33 54.78 47.08 26.14 33.27 26.14 33.27 54.78"/><polygon class="cls-3" points="16.16 26.14 47.07 26.14 47.81 18.48 15.44 18.48 16.16 26.14"/><polygon class="cls-4" points="33.27 18.48 33.27 26.14 47.07 26.14 47.81 18.48 33.27 18.48"/><path class="cls-7" d="M49.45,10.82h-.14V5.73L13.94,2.8v8h-.15a3.73,3.73,0,0,0-3.72,3.72v1.72A3.73,3.73,0,0,0,13.79,20h.28L18.22,63.8H45l.72-7.52h0l3-31.64h0L49.17,20h.28a3.73,3.73,0,0,0,3.72-3.72V14.54A3.73,3.73,0,0,0,49.45,10.82ZM16.94,6.06,46.31,8.49v2.33H16.94ZM42.24,60.8H21l-.43-4.52H42.68ZM43,53.28H20.24L17.81,27.64H45.42Zm2.75-28.64H17.53L17.09,20H46.16Zm4.46-8.38a.72.72,0,0,1-.72.72H13.79a.72.72,0,0,1-.72-.72V14.54a.72.72,0,0,1,.72-.72H49.45a.72.72,0,0,1,.72.72Z"/><circle class="cls-3" cx="32" cy="39.84" r="7.84"/><path class="cls-4" d="M33.27,32.11V47.56a7.83,7.83,0,0,0,0-15.45Z"/><path class="cls-7" d="M32,49.17a9.34,9.34,0,1,1,9.34-9.33A9.35,9.35,0,0,1,32,49.17ZM32,33.5a6.34,6.34,0,1,0,6.34,6.34A6.35,6.35,0,0,0,32,33.5Z"/></svg>